<svg xmlns="http://www.w3.org/2000/svg" viewBox="0 0 307 100.5"><defs><style>.cls-1,.cls-2,.cls-5{fill:none;}.cls-1{stroke:#cccacb;stroke-width:2px;}.cls-1,.cls-5{stroke-miterlimit:10;}.cls-3{fill:#cccacb;}.cls-4{fill:#f2e5dd;}.cls-5{stroke:#77868f;stroke-width:3px;}.cls-14,.cls-6{font-size:37px;fill:#77868f;}.cls-15,.cls-16,.cls-17,.cls-18,.cls-6{font-family:CenturyGothic, Century Gothic;}.cls-6{letter-spacing:-0.03em;}.cls-7{letter-spacing:-0.02em;}.cls-8{letter-spacing:-0.04em;}.cls-9{letter-spacing:-0.03em;}.cls-10{letter-spacing:-0.03em;}.cls-11{letter-spacing:-0.02em;}.cls-12{letter-spacing:-0.07em;}.cls-13,.cls-14{letter-spacing:-0.02em;}.cls-14{font-family:CenturyGothic-Italic, Century Gothic;font-style:italic;}.cls-15,.cls-16,.cls-17,.cls-18{font-style:normal;}.cls-16{letter-spacing:-0.04em;}.cls-17{letter-spacing:-0.02em;}.cls-18{letter-spacing:-0.04em;}</style></defs><g id="Capa_2" data-name="Capa 2"><g id="logo"><polygon class="cls-1" points="288 36 288 18 297 18 306 27 306 36 288 36"/><line class="cls-1" x1="297" y1="18" x2="297" y2="36"/><line class="cls-1" x1="306" y1="27" x2="288" y2="27"/><line class="cls-1" x1="288" y1="18" x2="306" y2="36"/><path class="cls-2" d="M270.5,33.75a29.81,29.81,0,0,0-.73-6.52,29.72,29.72,0,0,0-35.54,35.54,29.72,29.72,0,0,0,36.27-29Z"/><path class="cls-2" d="M263.25,22.5a34.08,34.08,0,0,1,5.19.4A29.74,29.74,0,1,0,229.9,61.44,33.76,33.76,0,0,1,263.25,22.5Z"/><path class="cls-2" d="M240.75,67.5a34.08,34.08,0,0,1-5.19-.4A29.74,29.74,0,1,0,274.1,28.56,33.76,33.76,0,0,1,240.75,67.5Z"/><path class="cls-3" d="M274.1,28.56a28.58,28.58,0,0,0-4.33-1.33,29.72,29.72,0,0,1-35.54,35.54,28.58,28.58,0,0,1-4.33-1.33A29.74,29.74,0,1,1,268.44,22.9,33.53,33.53,0,0,1,273.05,24,33.76,33.76,0,1,0,235.56,67.1,33.76,33.76,0,0,0,274.5,33.75,34.08,34.08,0,0,0,274.1,28.56Z"/><path class="cls-4" d="M273.05,24a33.53,33.53,0,0,0-4.61-1.05A33.76,33.76,0,0,0,229.9,61.44a28.58,28.58,0,0,0,4.33,1.33,29.72,29.72,0,0,1,35.54-35.54,28.58,28.58,0,0,1,4.33,1.33A29.74,29.74,0,1,1,235.56,67.1a33.53,33.53,0,0,1-4.61-1A33.75,33.75,0,1,0,273.05,24Z"/><polyline class="cls-5" points="216 72 216 99 36 99 36 45"/></g><g id="texto"><text class="cls-6" transform="translate(10.26 36.23)">F<tspan class="cls-7" x="16.64" y="0">E</tspan><tspan class="cls-8" x="35.68" y="0">R</tspan><tspan class="cls-9" x="56.77" y="0">N</tspan><tspan class="cls-10" x="82.9" y="0">A</tspan><tspan class="cls-11" x="109.02" y="0">N</tspan><tspan class="cls-12" x="135.54" y="0">D</tspan><tspan class="cls-13" x="160.37" y="0">A</tspan></text><text class="cls-14" transform="translate(49.13 81.23)">&amp;<tspan class="cls-15" x="27.08" y="0"> </tspan><tspan class="cls-16" x="36.4" y="0">O</tspan><tspan class="cls-17" x="66.96" y="0">M</tspan><tspan class="cls-18" x="100.37" y="0">A</tspan><tspan class="cls-15" x="126.41" y="0">R</tspan></text></g></g></svg>