<svg xmlns="http://www.w3.org/2000/svg" viewBox="0 0 293.51 100.5"><defs><style>.cls-1{fill:#f2e5dd;}</style></defs><g id="Capa_2" data-name="Capa 2"><g id="texto"><path class="cls-1" d="M283.92,17H273.51V37h20V26.59Zm-8.41,3.41L281.09,26h-5.58Zm9,0L290.09,26h-5.58Zm-2,4.18L276.92,19h5.59ZM285.92,28h5.59v5.59Zm4.17,7h-5.58V29.41Zm-14.58-7h7v7h-7Z"/><path class="cls-1" d="M260.61,28.56a28.93,28.93,0,0,0-4.33-1.33,29.73,29.73,0,0,1-35.55,35.54,29.3,29.3,0,0,1-4.33-1.33A29.75,29.75,0,1,1,255,22.9,33.87,33.87,0,0,1,259.56,24a33.75,33.75,0,1,0-42.1,42.1,33.39,33.39,0,0,0,4.6,1,34.31,34.31,0,0,0,5.2.4,33.76,33.76,0,0,0,33.35-38.94Z"/><path class="cls-1" d="M259.56,24A33.8,33.8,0,0,0,216.4,61.44a29.3,29.3,0,0,0,4.33,1.33,29.73,29.73,0,0,1,35.55-35.54,28.93,28.93,0,0,1,4.33,1.33A29.75,29.75,0,1,1,222.06,67.1a33.39,33.39,0,0,1-4.6-1A33.75,33.75,0,1,0,259.56,24Z"/><polygon class="cls-1" points="204.01 100.5 21.01 100.5 21.01 45 24.01 45 24.01 97.5 201.01 97.5 201.01 72 204.01 72 204.01 100.5"/><path class="cls-1" d="M0,9.66H13.31v2.6H2.66v8.33H13.31v2.6H2.66v13H0Z"/><path class="cls-1" d="M16.66,9.66H31.89v2.6H19.32v8.33H31.78v2.6H19.32V33.63H31.78v2.6H16.66Z"/><path class="cls-1" d="M35.82,9.66h5.3a32.07,32.07,0,0,1,6,.36A6.82,6.82,0,0,1,51,12.34a6.63,6.63,0,0,1,1.48,4.39,7.11,7.11,0,0,1-1,3.82A6.37,6.37,0,0,1,48.5,23a13.34,13.34,0,0,1-5.23.86l9.55,12.34H49.54L40,23.89h-1.5V36.23H35.82Zm2.66,2.6v9l4.58,0A11.27,11.27,0,0,0,47,20.82a4,4,0,0,0,2-1.62,4.44,4.44,0,0,0,.72-2.48A4.26,4.26,0,0,0,49,14.29a4,4,0,0,0-1.9-1.56,11.3,11.3,0,0,0-3.9-.47Z"/><path class="cls-1" d="M56.79,36.23V9.66h.58L75.05,30V9.66h2.62V36.23h-.59L59.53,16.11V36.23Z"/><path class="cls-1" d="M93.76,9.66l12.4,26.57h-2.87l-4.18-8.74H87.66l-4.14,8.74h-3L93.11,9.66Zm-.33,5.64-4.56,9.62H98Z"/><path class="cls-1" d="M109,36.23V9.66h.58L127.3,30V9.66h2.62V36.23h-.59L111.79,16.11V36.23Z"/><path class="cls-1" d="M135.54,36.23V9.66h5.51a28.5,28.5,0,0,1,8.66.95,11.57,11.57,0,0,1,6,4.7,14.31,14.31,0,0,1,2.18,8,14,14,0,0,1-1.73,7,11.1,11.1,0,0,1-4.48,4.48A16.9,16.9,0,0,1,144,36.23Zm2.55-2.51h3.07A28.41,28.41,0,0,0,148.8,33a8.81,8.81,0,0,0,4.72-3.51,10.74,10.74,0,0,0,1.72-6.2,11.39,11.39,0,0,0-1.86-6.57A9.37,9.37,0,0,0,148.19,13a31.11,31.11,0,0,0-8.22-.76h-1.88Z"/><path class="cls-1" d="M171.23,9.66l12.39,26.57h-2.87l-4.18-8.74H165.12L161,36.23h-3L170.58,9.66Zm-.34,5.64-4.55,9.62h9.08Z"/><path class="cls-1" d="M58.58,71.28l1.66,2q-2,1.7-3.6,2.77a63.91,63.91,0,0,0,4.71,5.16H57.74l-2.28-2.38c-.32-.35-.65-.75-1-1.2Q48.8,81.9,44.33,81.9a7.11,7.11,0,0,1-3.48-.76,5.88,5.88,0,0,1-2.26-2.25,6.38,6.38,0,0,1-.35-5.74,9.24,9.24,0,0,1,2-2.76,42.63,42.63,0,0,1,5.24-3.87q-2.31-3.36-2.31-5.63a4.78,4.78,0,0,1,1.75-3.75,6.55,6.55,0,0,1,4.46-1.53,5.61,5.61,0,0,1,3.85,1.32A4,4,0,0,1,54.75,60a5.89,5.89,0,0,1-1.08,3.26,18,18,0,0,1-4.36,4q1.8,2.39,4,5l1.56,1.83,2-1.48ZM47.05,68.69a22.94,22.94,0,0,0-5.56,4.23,4.28,4.28,0,0,0-1.08,2.78,3.28,3.28,0,0,0,1.19,2.7,4,4,0,0,0,2.64,1,9.49,9.49,0,0,0,3.57-.94,41.39,41.39,0,0,0,4.94-2.79c-.4-.41-.8-.85-1.2-1.33Q48.44,70.49,47.05,68.69Zm.74-3.56a16.27,16.27,0,0,0,3.46-2.95,3.42,3.42,0,0,0,.77-2,1.8,1.8,0,0,0-.76-1.43,3.27,3.27,0,0,0-2.09-.61A3.46,3.46,0,0,0,46.8,59a2.33,2.33,0,0,0-.88,1.82Q45.92,62.25,47.79,65.13Z"/><path class="cls-1" d="M87.92,54A13.77,13.77,0,0,1,98,58a14.11,14.11,0,0,1,0,19.82,14.21,14.21,0,0,1-19.88,0,13.3,13.3,0,0,1-4.07-9.79A14.13,14.13,0,0,1,76,61a13.68,13.68,0,0,1,12-7ZM88,56.57a10.88,10.88,0,0,0-5.59,1.54,11,11,0,0,0-4.13,4.14,11.48,11.48,0,0,0-1.48,5.8A11.18,11.18,0,0,0,88,79.32a11.4,11.4,0,0,0,5.73-1.5,10.82,10.82,0,0,0,4.11-4.11,11.53,11.53,0,0,0,1.47-5.78,11.32,11.32,0,0,0-1.47-5.73,11,11,0,0,0-4.16-4.09A11.17,11.17,0,0,0,88,56.57Z"/><path class="cls-1" d="M104.62,81.23l3.8-26.57h.43l10.81,21.8,10.7-21.8h.42l3.83,26.57H132l-2.62-19-9.4,19h-.68l-9.51-19.15-2.61,19.15Z"/><path class="cls-1" d="M150.1,54.66l12.4,26.57h-2.87l-4.18-8.74H144l-4.14,8.74h-3l12.56-26.57Zm-.33,5.64-4.56,9.62h9.09Z"/><path class="cls-1" d="M165.43,54.66h5.29a32.28,32.28,0,0,1,6,.36,6.82,6.82,0,0,1,3.85,2.32,6.68,6.68,0,0,1,1.48,4.39,7.11,7.11,0,0,1-1,3.82A6.42,6.42,0,0,1,178.11,68a13.4,13.4,0,0,1-5.24.86l9.56,12.34h-3.29l-9.56-12.34h-1.5V81.23h-2.65Zm2.65,2.6v9l4.58,0a11.34,11.34,0,0,0,3.94-.51,4.08,4.08,0,0,0,2-1.62,4.52,4.52,0,0,0,.71-2.48,4.33,4.33,0,0,0-.72-2.43,4.06,4.06,0,0,0-1.9-1.56,11.41,11.41,0,0,0-3.91-.47Z"/></g></g></svg>