<svg xmlns="http://www.w3.org/2000/svg" viewBox="0 0 100 90"><defs><style>.cls-1,.cls-2{fill:none;}.cls-1{stroke:#cccacb;stroke-miterlimit:10;stroke-width:2px;}.cls-3{fill:#cccacb;}.cls-4{fill:#f2e5dd;}</style></defs><g id="Capa_2" data-name="Capa 2"><g id="logo"><polygon class="cls-1" points="81 36 81 18 90 18 99 27 99 36 81 36"/><line class="cls-1" x1="90" y1="18" x2="90" y2="36"/><line class="cls-1" x1="99" y1="27" x2="81" y2="27"/><line class="cls-1" x1="81" y1="18" x2="99" y2="36"/><path class="cls-2" d="M63.5,33.75a29.81,29.81,0,0,0-.73-6.52A29.72,29.72,0,0,0,27.23,62.77a29.72,29.72,0,0,0,36.27-29Z"/><path class="cls-2" d="M56.25,22.5a34.08,34.08,0,0,1,5.19.4A29.74,29.74,0,1,0,22.9,61.44,33.76,33.76,0,0,1,56.25,22.5Z"/><path class="cls-2" d="M33.75,67.5a34.08,34.08,0,0,1-5.19-.4A29.74,29.74,0,1,0,67.1,28.56,33.76,33.76,0,0,1,33.75,67.5Z"/><path class="cls-3" d="M67.1,28.56a28.58,28.58,0,0,0-4.33-1.33A29.72,29.72,0,0,1,27.23,62.77a28.58,28.58,0,0,1-4.33-1.33A29.74,29.74,0,1,1,61.44,22.9,33.53,33.53,0,0,1,66.05,24,33.76,33.76,0,1,0,28.56,67.1,33.76,33.76,0,0,0,67.5,33.75,34.08,34.08,0,0,0,67.1,28.56Z"/><path class="cls-4" d="M66.05,24a33.53,33.53,0,0,0-4.61-1.05A33.76,33.76,0,0,0,22.9,61.44a28.58,28.58,0,0,0,4.33,1.33A29.72,29.72,0,0,1,62.77,27.23a28.58,28.58,0,0,1,4.33,1.33A29.74,29.74,0,1,1,28.56,67.1a33.53,33.53,0,0,1-4.61-1A33.75,33.75,0,1,0,66.05,24Z"/></g></g></svg>