<?xml version="1.0" encoding="utf-8"?>
<!-- Generator: Adobe Illustrator 25.2.3, SVG Export Plug-In . SVG Version: 6.00 Build 0)  -->
<svg version="1.1" id="Capa_1" xmlns="http://www.w3.org/2000/svg" xmlns:xlink="http://www.w3.org/1999/xlink" x="0px" y="0px"
	 viewBox="0 0 1920 2000" style="enable-background:new 0 0 1920 2000;" xml:space="preserve">
<style type="text/css">
	.st0{opacity:0.5;}
	.st1{fill:none;stroke:#CCCACB;stroke-width:28.0502;stroke-miterlimit:10;}
	.st2{fill:none;}
	.st3{fill:#CCCACB;}
	.st4{fill:#F2E5DD;}
	.st5{opacity:0.25;}
	.st6{fill:none;stroke:#CCCACB;stroke-width:20.3564;stroke-miterlimit:10;}
</style>
<g id="logo" class="st0">
	<g>
		<polygon class="st1" points="785,580 785,327.5 911.3,327.5 1037.5,453.7 1037.5,580 		"/>
		<line class="st1" x1="911.3" y1="327.5" x2="911.3" y2="580"/>
		<line class="st1" x1="1037.5" y1="453.7" x2="785" y2="453.7"/>
		<line class="st1" x1="785" y1="327.5" x2="1037.5" y2="580"/>
	</g>
	<path class="st2" d="M539.6,548.4c0-31.4-3.6-62-10.3-91.5c-29.4-6.6-60-10.3-91.5-10.3C207.8,446.7,20.6,633.9,20.6,864
		c0,31.4,3.6,62,10.3,91.5c29.4,6.6,60,10.3,91.5,10.3C352.4,965.7,539.6,778.5,539.6,548.4z"/>
	<path class="st2" d="M437.9,390.7c24.7,0,49.1,1.9,72.8,5.6c-60.9-155-212-265.1-388.4-265.1c-230.1,0-417.3,187.2-417.3,417.3
		c0,176.4,110.1,327.4,265.1,388.4c-3.7-23.7-5.6-48-5.6-72.8C-35.4,602.6,176.5,390.7,437.9,390.7z"/>
	<path class="st2" d="M122.3,1021.8c-24.7,0-49.1-1.9-72.8-5.6c61,155,212,265.1,388.4,265.1c230.1,0,417.3-187.2,417.3-417.3
		c0-176.4-110.1-327.4-265.1-388.4c3.7,23.7,5.6,48,5.6,72.8C595.7,809.8,383.8,1021.8,122.3,1021.8z"/>
	<path class="st3" d="M590.1,475.6c-19.6-7.7-39.8-14-60.8-18.6c6.6,29.4,10.3,60,10.3,91.5c0,230.1-187.2,417.3-417.3,417.3
		c-31.4,0-62-3.6-91.5-10.3c-20.9-4.7-41.2-11-60.8-18.6c-155-61-265.1-212-265.1-388.4c0-230.1,187.2-417.3,417.3-417.3
		c176.4,0,327.5,110.1,388.4,265.1c22.1,3.4,43.7,8.4,64.7,14.8c-58.9-194.4-239.4-335.9-453-335.9C-139.1,75.1-351,287-351,548.4
		c0,213.6,141.6,394.1,335.9,453c21,6.4,42.5,11.4,64.7,14.8c23.7,3.7,48,5.6,72.8,5.6c261.4,0,473.3-211.9,473.3-473.3
		C595.7,523.6,593.7,499.4,590.1,475.6z"/>
	<path class="st4" d="M575.4,410.9c-21-6.4-42.5-11.4-64.7-14.8c-23.7-3.7-48-5.6-72.8-5.6c-261.4,0-473.3,211.9-473.3,473.3
		c0,24.7,1.9,49.1,5.6,72.8c19.6,7.7,39.8,14,60.8,18.6c-6.6-29.4-10.3-60-10.3-91.5c0-230.1,187.2-417.3,417.3-417.3
		c31.4,0,62,3.6,91.5,10.3c20.9,4.7,41.2,11,60.8,18.6c155,61,265.1,212,265.1,388.4c0,230.1-187.2,417.3-417.3,417.3
		c-176.4,0-327.4-110.1-388.4-265.1c-22.1-3.4-43.7-8.4-64.7-14.8C43.9,1195.5,224.4,1337,438,1337c261.4,0,473.3-211.9,473.3-473.3
		C911.3,650.4,769.7,469.9,575.4,410.9z"/>
</g>
<g id="logo_1_" class="st5">
	<g>
		<polygon class="st6" points="1337.9,1366.4 1337.9,1274.8 1429.5,1183.2 1521.1,1183.2 1521.1,1366.4 		"/>
		<line class="st6" x1="1429.5" y1="1366.4" x2="1429.5" y2="1183.2"/>
		<line class="st6" x1="1521.1" y1="1274.8" x2="1337.9" y2="1274.8"/>
		<line class="st6" x1="1337.9" y1="1366.4" x2="1521.1" y2="1183.2"/>
	</g>
	<path class="st2" d="M2002,1646.2c22.8,0,45-2.7,66.4-7.5c4.9-21.3,7.5-43.5,7.5-66.4c0-167-135.9-302.8-302.8-302.8
		c-22.8,0-45,2.7-66.4,7.5c-4.9,21.3-7.5,43.5-7.5,66.4C1699.2,1510.5,1835,1646.2,2002,1646.2z"/>
	<path class="st2" d="M2116.5,1572.4c0,18-1.4,35.6-4.1,52.8c112.5-44.3,192.4-153.9,192.4-281.9c0-167-135.9-302.8-302.8-302.8
		c-128,0-237.7,79.9-281.9,192.4c17.3-2.7,34.9-4.1,52.8-4.1C1962.8,1229,2116.5,1382.7,2116.5,1572.4z"/>
	<path class="st2" d="M1658.6,1343.5c0-18,1.4-35.6,4.1-52.8c-112.5,44.3-192.4,153.9-192.4,281.9c0,167,135.9,302.8,302.8,302.8
		c128,0,237.6-79.9,281.9-192.4c-17.3,2.7-34.9,4.1-52.8,4.1C1812.3,1687,1658.5,1533.2,1658.6,1343.5z"/>
	<path class="st3" d="M1658.5,1343.6c0,189.7,153.8,343.5,343.5,343.5c18,0,35.6-1.4,52.8-4.1c16-2.5,31.7-6.1,47-10.7
		c141.1-42.7,243.8-173.7,243.8-328.7c0-189.8-153.8-343.5-343.5-343.5c-155,0-286,102.7-328.7,243.8c15.2-4.6,30.8-8.3,47-10.7
		c44.2-112.5,153.9-192.4,281.9-192.4c167,0,302.8,135.9,302.8,302.8c0,128-79.9,237.6-192.4,281.9c-14.2,5.5-28.9,10.1-44.1,13.5
		c-21.3,4.9-43.5,7.5-66.4,7.5c-167,0-302.8-135.9-302.8-302.8c0-22.8,2.7-45,7.5-66.4c-15.2,3.3-29.9,7.9-44.1,13.5
		C1659.9,1307.8,1658.5,1325.5,1658.5,1343.6z"/>
	<path class="st4" d="M1429.5,1572.4c0,189.7,153.8,343.5,343.5,343.5c155.1,0,286-102.8,328.7-243.8c-15.2,4.6-30.8,8.3-47,10.7
		c-44.3,112.5-153.9,192.4-281.9,192.4c-167,0-302.8-135.9-302.8-302.8c0-128,79.9-237.6,192.4-281.9c14.2-5.5,28.9-10.1,44.1-13.5
		c21.3-4.9,43.5-7.5,66.4-7.5c167,0,302.8,135.9,302.8,302.8c0,22.8-2.7,45-7.5,66.4c15.2-3.3,29.9-7.9,44.1-13.5
		c2.7-17.3,4.1-34.9,4.1-52.8c0-189.7-153.8-343.5-343.5-343.5c-18,0-35.6,1.4-52.8,4.1c-16,2.5-31.7,6.1-47,10.7
		C1532.2,1286.4,1429.5,1417.4,1429.5,1572.4z"/>
</g>
<g id="texto">
	
		<image style="display:none;overflow:visible;opacity:0.57;enable-background:new    ;" width="2424" height="3264" xlink:href="../../../../2021_06_12 21_19 Office Lens.jpg"  transform="matrix(1 0 0 1 482.0842 -818.945)">
	</image>
</g>
</svg>
